<svg width="178" height="200" viewBox="0 0 178 200" fill="none" xmlns="http://www.w3.org/2000/svg">
<path d="M142.864 134.475C141.631 136.005 140.305 137.487 138.883 138.908C118.18 159.611 85.0778 160.359 63.4791 141.15L74.1119 130.517C89.8278 143.883 113.434 143.145 128.277 128.302C129.313 127.265 130.278 126.184 131.177 125.067L142.864 134.475ZM69.6656 73.9325C56.7686 88.8952 56.7687 111.139 69.6656 126.101L59.0377 136.728C40.3118 115.875 40.3108 84.1583 59.0367 63.3046L69.6656 73.9325ZM63.4791 58.8837C85.0778 39.6755 118.18 40.4226 138.883 61.1259C140.289 62.5318 141.602 63.9959 142.824 65.5087L131.138 74.9169C130.251 73.8181 129.298 72.7536 128.277 71.7323C113.434 56.8892 89.8278 56.1515 74.1119 69.5165L63.4791 58.8837Z" fill="#FFF2AF"/>
<path d="M154.546 143.879C152.98 145.822 151.297 147.702 149.493 149.506C122.93 176.069 80.3318 176.82 52.8609 151.762L63.482 141.142C85.0807 160.35 118.183 159.603 138.886 138.9C140.306 137.48 141.63 136.001 142.862 134.473L154.546 143.879ZM59.0396 63.2952C40.3135 84.1489 40.3146 115.866 59.0406 136.72L48.4215 147.339C23.854 120.609 23.854 79.4087 48.4215 52.678L59.0396 63.2952ZM52.8609 48.2552C80.3318 23.1973 122.93 23.9486 149.493 50.511C151.285 52.3031 152.958 54.1694 154.515 56.0979L142.831 65.5042C141.608 63.9899 140.294 62.5247 138.886 61.1175C118.183 40.4142 85.0807 39.6671 63.482 58.8753L52.8609 48.2552Z" fill="#F2A8A3"/>
<path d="M166.23 153.285C164.331 155.64 162.289 157.919 160.101 160.106C127.68 192.527 75.585 193.283 42.247 162.373L52.8632 151.756C80.334 176.814 122.933 176.062 149.495 149.5C151.298 147.697 152.98 145.819 154.545 143.878L166.23 153.285ZM48.4237 52.6718C23.8562 79.4024 23.8565 120.602 48.4237 147.333L37.8095 157.948C7.39444 125.347 7.39444 74.6585 37.8095 42.0575L48.4237 52.6718ZM42.247 37.6327C75.5849 6.72249 127.68 7.47737 160.101 39.8983C162.279 42.0763 164.313 44.3445 166.205 46.6884L154.519 56.0946C152.962 54.1652 151.288 52.2977 149.495 50.5048C122.933 23.9425 80.334 23.1911 52.8632 48.2489L42.247 37.6327Z" fill="#C1F8BB"/>
<path d="M177.915 162.69C175.682 165.459 173.282 168.138 170.71 170.71C132.43 208.99 70.8379 209.746 31.6356 172.982L42.2479 162.37C75.5859 193.28 127.682 192.525 160.103 160.104C162.29 157.917 164.331 155.638 166.229 153.284L177.915 162.69ZM37.8104 42.0538C7.39559 74.6546 7.3958 125.343 37.8104 157.944L27.1991 168.557C-9.06638 130.089 -9.06635 69.91 27.1991 31.4424L37.8104 42.0538ZM31.6356 27.0167C70.8379 -9.74762 132.43 -8.99039 170.71 29.2891C173.273 31.8521 175.666 34.521 177.892 37.2794L166.208 46.6856C164.316 44.3415 162.282 42.0737 160.103 39.8956C127.682 7.47444 75.5859 6.71869 42.2479 37.629L31.6356 27.0167Z" fill="#A4C5F1"/>
</svg>
